<svg id="Layer_1" data-name="Layer 1" xmlns="http://www.w3.org/2000/svg" viewBox="0 0 430.07 97.39"><defs><style>.cls-1,.cls-3{font-size:46.53px;}.cls-1{font-family:LibreBaskerville-Regular, Libre Baskerville;letter-spacing:-0.04em;}.cls-2{letter-spacing:-0.02em;}.cls-3{font-family:LibreBaskerville-Bold, Libre Baskerville;font-weight:700;}</style></defs><title>Adnan Khan Logo</title><text class="cls-1" transform="translate(129.57 67.27)">A<tspan class="cls-2" x="34.24" y="0">dnan </tspan></text><text class="cls-3" transform="translate(289.34 67.27)">Khan</text><path d="M71.14,50.71C73,53.45,90.43,75.26,94.39,79c1.18,1.09,2.24,2,3.26,2.85H63.23c-1.54-1.29-3.34-3.74-5.44-8.59-6-14-21.15-50.84-23.42-55.9-.95-2.12-1.51-2.94-2.36-2.94s-1.51,1-2.64,3.67l-2.53,6.08L44,70.32,48.44,81.4a1.5,1.5,0,0,1-.86,2.13c-.93.09-1.32.27-1.32.82s1.14.64,2.84.74c5,.12,9.69.17,13.28.18h58.13c1.79,0,2.28-.28,2.31-1s-.52-.75-1.2-.75a15.49,15.49,0,0,1-5.77-1.42c-5-2-9-6.23-13-10.2-3.51-3.49-21-23.42-24.13-27.84,3.38-3.4,18.39-17.57,21.46-20.41,4.27-4,7.6-5.93,10.58-7.07a18.63,18.63,0,0,1,5.53-1c1,0,1.42-.2,1.47-.86s-.63-.84-1.57-.84c-2.93,0-8.14.28-11.06.28-2.56,0-7.73-.28-9.72-.28-1,0-1.52.19-1.55.84s.34.77,1.18.95,1.27.84,1.22,1.89c-.09,1.6-2.28,4-5.09,7.08S72.52,43.31,68.71,47.19Zm1-34.95a12.81,12.81,0,0,1,2.59-.29c.74,0,1.3-.18,1.3-.84s-.66-.86-1.94-.86H51.45c-1.37,0-2,.18-2,.86s.55.84,1.56.84a17.83,17.83,0,0,1,3.62.29c3,.66,3.78,2.16,4,5.37a42.4,42.4,0,0,1,.19,5.5c1.76-2.36,5.86-8,13.4-10.87ZM27.65,69.93q-5-12.51-10-25c-1.21,3-2.59,5.59-3.78,8.57a5,5,0,0,0,.4,3C17.12,63,20.13,70,23,76.55c.83,6.33-1.42,10-3.09,13.34q3.6-5.16,7.19-10.31c1.79-3.07,1.47-6.34.6-9.65Z"/></svg>